<?xml version="1.0" encoding="UTF-8" standalone="no"?>
<!DOCTYPE svg PUBLIC "-//W3C//DTD SVG 1.1//EN" "http://www.w3.org/Graphics/SVG/1.1/DTD/svg11.dtd">
<!-- Created with Vectornator (http://vectornator.io/) -->
<svg height="100%" stroke-miterlimit="10" style="fill-rule:nonzero;clip-rule:evenodd;stroke-linecap:round;stroke-linejoin:round;" version="1.1" viewBox="0 0 24 24" width="100%" xml:space="preserve" xmlns="http://www.w3.org/2000/svg" xmlns:vectornator="http://vectornator.io" xmlns:xlink="http://www.w3.org/1999/xlink">
<defs/>
<g id="Untitled" vectornator:layerName="Untitled">
<path d="M13.896 2.79058L21.1636 10.0822C22.1947 11.1168 22.192 12.7913 21.1574 13.8225L13.8656 21.0903C12.8311 22.1214 11.1565 22.1186 10.1253 21.0841L2.85773 13.7925C1.82659 12.7579 1.82935 11.0834 2.8639 10.0522L10.1557 2.78441C11.1903 1.75326 12.8649 1.75602 13.896 2.79058Z" fill="#cecece" fill-rule="nonzero" opacity="0" stroke="none"/>
<path d="M11.4176 18.3356C11.4168 18.7945 10.4955 18.6129 10.1459 18.2622L5.20398 13.3039C4.5028 12.6004 4.50468 11.4617 5.20818 10.7605L8.03065 7.94732L10.1666 5.81838C10.5261 5.46008 11.4389 5.41568 11.4381 5.8861" fill="#a1a1a1" fill-rule="nonzero" opacity="0" stroke="none"/>
<path d="M12.8782 5.82027C12.8782 5.36136 13.7998 5.54135 14.15 5.89148L19.1005 10.8412C19.8029 11.5435 19.803 12.6822 19.1007 13.3846L16.283 16.2027L14.1508 18.3353C13.7919 18.6942 12.8792 18.7402 12.8791 18.2698" fill="#a1a1a1" fill-rule="nonzero" opacity="0" stroke="none"/>
<path d="M11.4337 13.0164L7.26072 8.66573L8.36949 7.60226L11.4355 10.7988" fill="#cecece" fill-rule="nonzero" opacity="0" stroke="none"/>
<path d="M12.8678 10.609L15.9069 7.61418L16.9852 8.70849L12.8674 12.7663" fill="#cecece" fill-rule="nonzero" opacity="0" stroke="none"/>
<path d="M13.8896 2.94615L21.1572 10.2378C22.1883 11.2723 22.1855 12.9469 21.151 13.9781L13.8592 21.2459C12.8246 22.277 11.15 22.2742 10.1189 21.2397L2.85128 13.9481C1.82013 12.9135 1.82289 11.2389 2.85745 10.2078L10.1493 2.93998C11.1838 1.90884 12.8584 1.9116 13.8896 2.94615Z" fill="#cecece" fill-rule="nonzero" opacity="0" stroke="none"/>
<path d="M10.9218 9.93513C11.4216 10.4743 6.26184 5.42445 6.26184 5.42445L8.98136 2.65577C9.53213 2.10678 10.9307 2.03876 10.9296 2.75953" fill="#aaaaaa" fill-rule="nonzero" opacity="1" stroke="none"/>
<path d="M13.1389 13.3208C12 14.4307 20.3956 6.26921 19.4313 7.09032L22.6699 10.3518C23.7461 11.4279 23.7463 13.1726 22.6702 14.2489L18.353 18.5667L15.0859 21.8343C14.5361 22.3843 13.1376 22.4547 13.1375 21.734" fill="#aaaaaa" fill-rule="nonzero" opacity="1" stroke="none"/>
<path d="M10.8904 21.8499C10.8892 22.5531 9.4776 22.2748 8.94194 21.7375L1.36982 14.1403C0.295463 13.0624 0.298342 11.3177 1.37624 10.2432L4.58986 7.09032C3.62012 6.3373 11.5339 13.9911 10.9218 13.3208" fill="#aaaaaa" fill-rule="nonzero" opacity="1" stroke="none"/>
<path d="M13.1389 2.65648C13.1388 1.95333 14.5509 2.22911 15.0875 2.76559L17.7317 5.42445C17.1818 5.97444 12.3697 10.6567 13.1389 9.93513" fill="#aaaaaa" fill-rule="nonzero" opacity="1" stroke="none"/>
</g>
</svg>
