<svg width="162" height="32" viewBox="0 0 162 32" fill="none" xmlns="http://www.w3.org/2000/svg">
<title>View on Twitter post</title>
<g clip-path="url(#clip0_90_2)">
<path d="M158 0H4C1.79086 0 0 1.79086 0 4V28C0 30.2091 1.79086 32 4 32H158C160.209 32 162 30.2091 162 28V4C162 1.79086 160.209 0 158 0Z" fill="url(#paint0_linear_90_2)"/>
<path d="M20.1761 7H22.9362L16.9061 14.6246L24 25H18.4447L14.0943 18.7074L9.1164 25H6.35461L12.8043 16.8446L6 7H11.6946L15.627 12.7517L20.1761 7ZM19.2073 23.1723H20.7368L10.8644 8.73169H9.2232L19.2073 23.1723Z" fill="#E7E9EA"/>
<path d="M32 0H33V32H32V0Z" fill="#2F3336"/>
<path d="M40.4148 11.2727L43.0057 18.6193H43.108L45.6989 11.2727H46.8068L43.6023 20H42.5114L39.3068 11.2727H40.4148ZM48.0298 20V13.4545H49.0355V20H48.0298ZM48.5412 12.3636C48.3452 12.3636 48.1761 12.2969 48.0341 12.1634C47.8949 12.0298 47.8253 11.8693 47.8253 11.6818C47.8253 11.4943 47.8949 11.3338 48.0341 11.2003C48.1761 11.0668 48.3452 11 48.5412 11C48.7372 11 48.9048 11.0668 49.044 11.2003C49.1861 11.3338 49.2571 11.4943 49.2571 11.6818C49.2571 11.8693 49.1861 12.0298 49.044 12.1634C48.9048 12.2969 48.7372 12.3636 48.5412 12.3636ZM53.6218 20.1364C52.9911 20.1364 52.4471 19.9972 51.9897 19.7188C51.5352 19.4375 51.1843 19.0455 50.9371 18.5426C50.6928 18.0369 50.5707 17.4489 50.5707 16.7784C50.5707 16.108 50.6928 15.517 50.9371 15.0057C51.1843 14.4915 51.5281 14.0909 51.9684 13.804C52.4116 13.5142 52.9286 13.3693 53.5195 13.3693C53.8604 13.3693 54.1971 13.4261 54.5295 13.5398C54.8619 13.6534 55.1644 13.8381 55.4371 14.0938C55.7099 14.3466 55.9272 14.6818 56.0891 15.0994C56.2511 15.517 56.332 16.0312 56.332 16.642V17.0682H51.2866V16.1989H55.3093C55.3093 15.8295 55.2354 15.5 55.0877 15.2102C54.9428 14.9205 54.7354 14.6918 54.4656 14.5241C54.1985 14.3565 53.8832 14.2727 53.5195 14.2727C53.119 14.2727 52.7724 14.3722 52.4798 14.571C52.19 14.767 51.967 15.0227 51.8107 15.3381C51.6545 15.6534 51.5763 15.9915 51.5763 16.3523V16.9318C51.5763 17.4261 51.6616 17.8452 51.832 18.1889C52.0053 18.5298 52.2454 18.7898 52.5522 18.9688C52.859 19.1449 53.2156 19.233 53.6218 19.233C53.886 19.233 54.1246 19.196 54.3377 19.1222C54.5536 19.0455 54.7397 18.9318 54.896 18.7812C55.0522 18.6278 55.1729 18.4375 55.2582 18.2102L56.2298 18.483C56.1275 18.8125 55.9556 19.1023 55.7141 19.3523C55.4727 19.5994 55.1744 19.7926 54.8192 19.9318C54.4641 20.0682 54.065 20.1364 53.6218 20.1364ZM59.3448 20L57.3505 13.4545H58.4073L59.8221 18.4659H59.8903L61.288 13.4545H62.3619L63.7425 18.4489H63.8107L65.2255 13.4545H66.2823L64.288 20H63.2994L61.8675 14.9716H61.7653L60.3335 20H59.3448ZM73.646 20.1364C73.055 20.1364 72.5366 19.9957 72.0906 19.7145C71.6474 19.4332 71.3008 19.0398 71.0508 18.5341C70.8036 18.0284 70.68 17.4375 70.68 16.7614C70.68 16.0795 70.8036 15.4844 71.0508 14.9759C71.3008 14.4673 71.6474 14.0724 72.0906 13.7912C72.5366 13.5099 73.055 13.3693 73.646 13.3693C74.2369 13.3693 74.7539 13.5099 75.1971 13.7912C75.6431 14.0724 75.9897 14.4673 76.2369 14.9759C76.4869 15.4844 76.6119 16.0795 76.6119 16.7614C76.6119 17.4375 76.4869 18.0284 76.2369 18.5341C75.9897 19.0398 75.6431 19.4332 75.1971 19.7145C74.7539 19.9957 74.2369 20.1364 73.646 20.1364ZM73.646 19.233C74.0948 19.233 74.4641 19.1179 74.7539 18.8878C75.0437 18.6577 75.2582 18.3551 75.3974 17.9801C75.5366 17.6051 75.6062 17.1989 75.6062 16.7614C75.6062 16.3239 75.5366 15.9162 75.3974 15.5384C75.2582 15.1605 75.0437 14.8551 74.7539 14.6222C74.4641 14.3892 74.0948 14.2727 73.646 14.2727C73.1971 14.2727 72.8278 14.3892 72.538 14.6222C72.2482 14.8551 72.0337 15.1605 71.8945 15.5384C71.7553 15.9162 71.6857 16.3239 71.6857 16.7614C71.6857 17.1989 71.7553 17.6051 71.8945 17.9801C72.0337 18.3551 72.2482 18.6577 72.538 18.8878C72.8278 19.1179 73.1971 19.233 73.646 19.233ZM79.1527 16.0625V20H78.147V13.4545H79.1186V14.4773H79.2038C79.3572 14.1449 79.5902 13.8778 79.9027 13.6761C80.2152 13.4716 80.6186 13.3693 81.1129 13.3693C81.5561 13.3693 81.9439 13.4602 82.2763 13.642C82.6087 13.821 82.8672 14.0938 83.0518 14.4602C83.2365 14.8239 83.3288 15.2841 83.3288 15.8409V20H82.3232V15.9091C82.3232 15.3949 82.1896 14.9943 81.9226 14.7074C81.6555 14.4176 81.2891 14.2727 80.8232 14.2727C80.5021 14.2727 80.2152 14.3423 79.9624 14.4815C79.7124 14.6207 79.5149 14.8239 79.37 15.0909C79.2251 15.358 79.1527 15.6818 79.1527 16.0625ZM88.2006 12.2102V11.2727H94.7461V12.2102H92.0018V20H90.945V12.2102H88.2006ZM96.9737 20L94.9794 13.4545H96.0362L97.451 18.4659H97.5192L98.9169 13.4545H99.9908L101.371 18.4489H101.44L102.854 13.4545H103.911L101.917 20H100.928L99.4964 14.9716H99.3942L97.9624 20H96.9737ZM105.241 20V13.4545H106.246V20H105.241ZM105.752 12.3636C105.556 12.3636 105.387 12.2969 105.245 12.1634C105.106 12.0298 105.036 11.8693 105.036 11.6818C105.036 11.4943 105.106 11.3338 105.245 11.2003C105.387 11.0668 105.556 11 105.752 11C105.948 11 106.116 11.0668 106.255 11.2003C106.397 11.3338 106.468 11.4943 106.468 11.6818C106.468 11.8693 106.397 12.0298 106.255 12.1634C106.116 12.2969 105.948 12.3636 105.752 12.3636ZM110.935 13.4545V14.3068H107.543V13.4545H110.935ZM108.532 11.8864H109.537V18.125C109.537 18.4091 109.578 18.6222 109.661 18.7642C109.746 18.9034 109.854 18.9972 109.985 19.0455C110.118 19.0909 110.259 19.1136 110.407 19.1136C110.517 19.1136 110.608 19.108 110.679 19.0966C110.75 19.0824 110.807 19.071 110.85 19.0625L111.054 19.9659C110.986 19.9915 110.891 20.017 110.769 20.0426C110.647 20.071 110.492 20.0852 110.304 20.0852C110.02 20.0852 109.742 20.0241 109.469 19.902C109.199 19.7798 108.975 19.5938 108.796 19.3438C108.62 19.0938 108.532 18.7784 108.532 18.3977V11.8864ZM115.294 13.4545V14.3068H111.902V13.4545H115.294ZM112.891 11.8864H113.897V18.125C113.897 18.4091 113.938 18.6222 114.02 18.7642C114.105 18.9034 114.213 18.9972 114.344 19.0455C114.478 19.0909 114.618 19.1136 114.766 19.1136C114.877 19.1136 114.968 19.108 115.039 19.0966C115.11 19.0824 115.167 19.071 115.209 19.0625L115.414 19.9659C115.346 19.9915 115.25 20.017 115.128 20.0426C115.006 20.071 114.851 20.0852 114.664 20.0852C114.38 20.0852 114.101 20.0241 113.828 19.902C113.559 19.7798 113.334 19.5938 113.155 19.3438C112.979 19.0938 112.891 18.7784 112.891 18.3977V11.8864ZM119.481 20.1364C118.85 20.1364 118.306 19.9972 117.849 19.7188C117.395 19.4375 117.044 19.0455 116.797 18.5426C116.552 18.0369 116.43 17.4489 116.43 16.7784C116.43 16.108 116.552 15.517 116.797 15.0057C117.044 14.4915 117.387 14.0909 117.828 13.804C118.271 13.5142 118.788 13.3693 119.379 13.3693C119.72 13.3693 120.056 13.4261 120.389 13.5398C120.721 13.6534 121.024 13.8381 121.297 14.0938C121.569 14.3466 121.787 14.6818 121.949 15.0994C122.11 15.517 122.191 16.0312 122.191 16.642V17.0682H117.146V16.1989H121.169C121.169 15.8295 121.095 15.5 120.947 15.2102C120.802 14.9205 120.595 14.6918 120.325 14.5241C120.058 14.3565 119.743 14.2727 119.379 14.2727C118.978 14.2727 118.632 14.3722 118.339 14.571C118.049 14.767 117.826 15.0227 117.67 15.3381C117.514 15.6534 117.436 15.9915 117.436 16.3523V16.9318C117.436 17.4261 117.521 17.8452 117.691 18.1889C117.865 18.5298 118.105 18.7898 118.412 18.9688C118.718 19.1449 119.075 19.233 119.481 19.233C119.745 19.233 119.984 19.196 120.197 19.1222C120.413 19.0455 120.599 18.9318 120.755 18.7812C120.912 18.6278 121.032 18.4375 121.118 18.2102L122.089 18.483C121.987 18.8125 121.815 19.1023 121.574 19.3523C121.332 19.5994 121.034 19.7926 120.679 19.9318C120.324 20.0682 119.924 20.1364 119.481 20.1364ZM123.721 20V13.4545H124.693V14.4432H124.761C124.88 14.1193 125.096 13.8565 125.409 13.6548C125.721 13.4531 126.074 13.3523 126.466 13.3523C126.539 13.3523 126.632 13.3537 126.743 13.3565C126.853 13.3594 126.937 13.3636 126.994 13.3693V14.392C126.96 14.3835 126.882 14.3707 126.76 14.3537C126.64 14.3338 126.514 14.3239 126.38 14.3239C126.062 14.3239 125.778 14.3906 125.528 14.5241C125.281 14.6548 125.085 14.8366 124.94 15.0696C124.798 15.2997 124.727 15.5625 124.727 15.858V20H123.721ZM131.561 22.4545V13.4545H132.533V14.4943H132.652C132.726 14.3807 132.828 14.2358 132.959 14.0597C133.092 13.8807 133.283 13.7216 133.53 13.5824C133.78 13.4403 134.118 13.3693 134.544 13.3693C135.095 13.3693 135.581 13.5071 136.001 13.7827C136.422 14.0582 136.75 14.4489 136.986 14.9545C137.222 15.4602 137.339 16.0568 137.339 16.7443C137.339 17.4375 137.222 18.0384 136.986 18.5469C136.75 19.0526 136.423 19.4446 136.006 19.723C135.588 19.9986 135.107 20.1364 134.561 20.1364C134.141 20.1364 133.804 20.0668 133.551 19.9276C133.298 19.7855 133.104 19.625 132.967 19.446C132.831 19.2642 132.726 19.1136 132.652 18.9943H132.567V22.4545H131.561ZM132.55 16.7273C132.55 17.2216 132.622 17.6577 132.767 18.0355C132.912 18.4105 133.124 18.7045 133.402 18.9176C133.68 19.1278 134.021 19.233 134.425 19.233C134.845 19.233 135.196 19.1222 135.477 18.9006C135.761 18.6761 135.974 18.375 136.116 17.9972C136.261 17.6165 136.334 17.1932 136.334 16.7273C136.334 16.267 136.263 15.8523 136.121 15.483C135.982 15.1108 135.77 14.8168 135.486 14.6009C135.205 14.3821 134.851 14.2727 134.425 14.2727C134.016 14.2727 133.672 14.3764 133.393 14.5838C133.115 14.7884 132.905 15.0753 132.763 15.4446C132.621 15.8111 132.55 16.2386 132.55 16.7273ZM141.533 20.1364C140.942 20.1364 140.423 19.9957 139.977 19.7145C139.534 19.4332 139.188 19.0398 138.938 18.5341C138.69 18.0284 138.567 17.4375 138.567 16.7614C138.567 16.0795 138.69 15.4844 138.938 14.9759C139.188 14.4673 139.534 14.0724 139.977 13.7912C140.423 13.5099 140.942 13.3693 141.533 13.3693C142.124 13.3693 142.641 13.5099 143.084 13.7912C143.53 14.0724 143.876 14.4673 144.124 14.9759C144.374 15.4844 144.499 16.0795 144.499 16.7614C144.499 17.4375 144.374 18.0284 144.124 18.5341C143.876 19.0398 143.53 19.4332 143.084 19.7145C142.641 19.9957 142.124 20.1364 141.533 20.1364ZM141.533 19.233C141.982 19.233 142.351 19.1179 142.641 18.8878C142.93 18.6577 143.145 18.3551 143.284 17.9801C143.423 17.6051 143.493 17.1989 143.493 16.7614C143.493 16.3239 143.423 15.9162 143.284 15.5384C143.145 15.1605 142.93 14.8551 142.641 14.6222C142.351 14.3892 141.982 14.2727 141.533 14.2727C141.084 14.2727 140.714 14.3892 140.425 14.6222C140.135 14.8551 139.92 15.1605 139.781 15.5384C139.642 15.9162 139.572 16.3239 139.572 16.7614C139.572 17.1989 139.642 17.6051 139.781 17.9801C139.92 18.3551 140.135 18.6577 140.425 18.8878C140.714 19.1179 141.084 19.233 141.533 19.233ZM150.67 14.9205L149.767 15.1761C149.71 15.0256 149.626 14.8793 149.515 14.7372C149.407 14.5923 149.26 14.473 149.072 14.3793C148.885 14.2855 148.645 14.2386 148.352 14.2386C147.951 14.2386 147.618 14.331 147.35 14.5156C147.086 14.6974 146.954 14.929 146.954 15.2102C146.954 15.4602 147.045 15.6577 147.227 15.8026C147.409 15.9474 147.693 16.0682 148.079 16.1648L149.051 16.4034C149.636 16.5455 150.072 16.7628 150.359 17.0554C150.646 17.3452 150.789 17.7187 150.789 18.1761C150.789 18.5511 150.681 18.8864 150.466 19.1818C150.252 19.4773 149.954 19.7102 149.571 19.8807C149.187 20.0511 148.741 20.1364 148.233 20.1364C147.565 20.1364 147.012 19.9915 146.575 19.7017C146.137 19.4119 145.86 18.9886 145.744 18.4318L146.699 18.1932C146.789 18.5455 146.961 18.8097 147.214 18.9858C147.47 19.1619 147.804 19.25 148.216 19.25C148.684 19.25 149.056 19.1506 149.332 18.9517C149.61 18.75 149.75 18.5085 149.75 18.2273C149.75 18 149.67 17.8097 149.511 17.6562C149.352 17.5 149.108 17.3835 148.778 17.3068L147.687 17.0511C147.088 16.9091 146.647 16.6889 146.366 16.3906C146.088 16.0895 145.949 15.7131 145.949 15.2614C145.949 14.892 146.052 14.5653 146.26 14.2812C146.47 13.9972 146.755 13.7741 147.116 13.6122C147.48 13.4503 147.892 13.3693 148.352 13.3693C149 13.3693 149.508 13.5114 149.877 13.7955C150.25 14.0795 150.514 14.4545 150.67 14.9205ZM155.15 13.4545V14.3068H151.758V13.4545H155.15ZM152.746 11.8864H153.752V18.125C153.752 18.4091 153.793 18.6222 153.876 18.7642C153.961 18.9034 154.069 18.9972 154.2 19.0455C154.333 19.0909 154.474 19.1136 154.621 19.1136C154.732 19.1136 154.823 19.108 154.894 19.0966C154.965 19.0824 155.022 19.071 155.065 19.0625L155.269 19.9659C155.201 19.9915 155.106 20.017 154.984 20.0426C154.862 20.071 154.707 20.0852 154.519 20.0852C154.235 20.0852 153.957 20.0241 153.684 19.902C153.414 19.7798 153.19 19.5938 153.011 19.3438C152.835 19.0938 152.746 18.7784 152.746 18.3977V11.8864Z" fill="white"/>
</g>
<defs>
<linearGradient id="paint0_linear_90_2" x1="0" y1="0" x2="162" y2="32" gradientUnits="userSpaceOnUse">
<stop/>
<stop offset="1" stop-color="#141414"/>
</linearGradient>
<clipPath id="clip0_90_2">
<rect width="162" height="32" fill="white"/>
</clipPath>
</defs>
</svg>
